<svg xmlns="http://www.w3.org/2000/svg" width="24" height="24" viewBox="0 0 24 24" fill="none">
  <path d="M18 8a2 2 0 0 1 2 2v6a2 2 0 0 1-2 2H6a2 2 0 0 1-2-2V8a2 2 0 0 1 2-2h12zm2 8c0 1-1 2-2 2H6c-1 0-2-1-2-2v-6c0-1 1-2 2-2h12c1 0 2 1 2 2v6z" fill="#007bff" />
  <path d="M12 13.5c-.828 0-1.5-.672-1.5-1.5s.672-1.5 1.5-1.5 1.5.672 1.5 1.5-.672 1.5-1.5 1.5z" fill="#fff" />
  <path d="M10.5 11h3v3h-3z" fill="#fff" />
  <path d="M14.5 8.5a.5.5 0 0 0-.5-.5H9.5a.5.5 0 0 0-.5.5v3a.5.5 0 0 0 .5.5h5a.5.5 0 0 0 .5-.5z" fill="#fff" />
</svg>
